<?xml version="1.0" encoding="utf-8"?>
<!-- Generator: Adobe Illustrator 24.1.2, SVG Export Plug-In . SVG Version: 6.00 Build 0)  -->
<svg version="1.1" id="Layer_1" xmlns="http://www.w3.org/2000/svg" xmlns:xlink="http://www.w3.org/1999/xlink" x="0px" y="0px"
	 viewBox="0 0 50 50" style="enable-background:new 0 0 50 50;" xml:space="preserve">
<g>
	<path d="M3.63,32.61c0.1-0.96,0.13-1.94,0.33-2.89c0.23-1.14,0.59-2.26,1.16-3.29c0.27-0.51,0.5-1.04,0.81-1.52
		c0.57-0.88,1.17-1.73,1.78-2.58c0.41-0.57,0.86-1.12,1.31-1.66c0.6-0.72,1.21-1.42,1.81-2.13c0.41-0.49,0.82-0.98,1.23-1.48
		c0.6-0.73,1.2-1.45,1.79-2.18c0.4-0.49,0.8-0.97,1.17-1.49c0.84-1.19,1.66-2.4,2.48-3.61c0.2-0.3,0.38-0.61,0.55-0.92
		c0.44-0.82,0.89-1.64,1.31-2.47c0.36-0.73,0.69-1.48,1.02-2.23C20.64,3.59,20.89,3,21.11,2.4c0.43-1.19,1.32-1.82,2.5-2.1
		c1.08-0.25,2.13-0.14,3.1,0.41c0.54,0.3,1,0.71,1.25,1.3c0.17,0.39,0.3,0.79,0.47,1.18c0.42,1,0.82,2.01,1.28,2.98
		c0.46,0.96,0.97,1.9,1.51,2.81c0.64,1.07,1.32,2.13,2.03,3.15c0.66,0.95,1.37,1.87,2.09,2.77c0.84,1.05,1.71,2.08,2.58,3.1
		c0.66,0.78,1.35,1.55,2,2.34c0.78,0.95,1.55,1.9,2.28,2.88c0.45,0.61,0.87,1.26,1.22,1.93c0.48,0.91,0.9,1.86,1.34,2.8
		c0.1,0.21,0.14,0.45,0.22,0.67c0.56,1.76,0.6,3.56,0.48,5.38c-0.07,1.04-0.33,2.03-0.63,3.01c-0.37,1.21-0.9,2.36-1.6,3.42
		c-0.59,0.9-1.24,1.78-1.97,2.57c-0.7,0.76-1.51,1.41-2.3,2.08c-0.5,0.42-1.03,0.8-1.58,1.13c-0.93,0.54-1.87,1.07-2.83,1.53
		c-1.26,0.6-2.59,1.03-3.96,1.36c-1.75,0.43-3.52,0.64-5.32,0.7c-2.7,0.09-5.33-0.28-7.91-1.04c-1.17-0.34-2.31-0.76-3.39-1.35
		c-0.92-0.5-1.84-0.99-2.72-1.56c-0.63-0.4-1.2-0.9-1.78-1.39c-0.49-0.41-0.96-0.84-1.4-1.31c-0.41-0.44-0.79-0.91-1.16-1.39
		c-0.68-0.9-1.33-1.83-1.77-2.88c-0.26-0.61-0.56-1.22-0.75-1.85c-0.51-1.68-0.71-2.54-0.69-4.42C3.68,32.61,3.66,32.61,3.63,32.61z
		 M24.6,7.44c-0.06,0.08-0.09,0.12-0.11,0.16c-0.24,0.49-0.47,0.99-0.71,1.48c-0.2,0.4-0.41,0.81-0.64,1.2
		c-0.41,0.71-0.84,1.41-1.27,2.1c-0.26,0.43-0.51,0.86-0.8,1.27c-0.64,0.91-1.3,1.8-1.96,2.69c-0.36,0.48-0.73,0.96-1.11,1.43
		c-0.62,0.76-1.24,1.51-1.87,2.27c-0.42,0.5-0.84,0.99-1.26,1.49c-0.6,0.71-1.22,1.41-1.81,2.13c-0.43,0.53-0.83,1.1-1.26,1.63
		c-0.9,1.11-1.66,2.32-2.19,3.64c-0.43,1.05-0.69,2.15-0.7,3.3c-0.01,1.12,0.08,2.22,0.45,3.29c0.13,0.38,0.28,0.76,0.42,1.13
		c0.38,1.03,0.99,1.92,1.67,2.77c0.38,0.47,0.79,0.94,1.24,1.35c0.85,0.78,1.78,1.44,2.78,2.02c1.38,0.81,2.85,1.38,4.39,1.78
		c2.43,0.62,4.88,0.74,7.36,0.4c1.65-0.22,3.24-0.65,4.76-1.31c1.19-0.52,2.3-1.16,3.34-1.95c0.83-0.63,1.61-1.32,2.25-2.13
		c0.57-0.73,1.08-1.52,1.54-2.33c0.48-0.85,0.76-1.79,0.96-2.73c0.24-1.13,0.25-2.29,0.08-3.44c-0.16-1.09-0.52-2.14-1.04-3.12
		c-0.17-0.32-0.33-0.66-0.54-0.96c-0.56-0.81-1.13-1.62-1.73-2.4c-0.59-0.78-1.22-1.54-1.85-2.29c-0.92-1.09-1.87-2.17-2.79-3.26
		c-0.69-0.82-1.38-1.65-2.02-2.51c-0.82-1.11-1.6-2.26-2.39-3.39c-0.2-0.29-0.38-0.58-0.56-0.88c-0.62-1.05-1.24-2.09-1.83-3.14
		c-0.27-0.47-0.48-0.98-0.71-1.47C24.7,7.59,24.66,7.54,24.6,7.44z"/>
	<path d="M17.6,38.79c0.07-0.18,0.08-0.34,0.17-0.45c0.39-0.48,0.8-0.95,1.2-1.43c0.4-0.48,0.8-0.95,1.2-1.43
		c0.83-1,1.67-1.99,2.5-2.99c0.37-0.45,0.74-0.91,1.11-1.35c0.82-0.98,1.65-1.96,2.47-2.94c0.39-0.46,0.77-0.93,1.15-1.39
		c0.41-0.49,0.81-0.99,1.22-1.48c0.34-0.39,0.9-0.43,1.36-0.1c0.45,0.32,0.9,0.65,1.34,0.99c0.31,0.23,0.33,0.74,0.08,1.04
		c-0.48,0.56-0.95,1.14-1.43,1.71c-0.58,0.69-1.17,1.38-1.75,2.07c-0.42,0.5-0.82,1-1.24,1.5c-0.63,0.75-1.26,1.5-1.89,2.25
		c-0.42,0.51-0.83,1.02-1.25,1.53c-0.6,0.72-1.22,1.43-1.82,2.15c-0.28,0.33-0.53,0.68-0.82,1.01c-0.26,0.3-0.52,0.62-0.82,0.88
		c-0.3,0.26-0.69,0.24-1.01,0.03c-0.52-0.33-1.03-0.7-1.51-1.09C17.72,39.18,17.68,38.95,17.6,38.79z"/>
	<path d="M31.12,34.28c1.23,0.01,2.17,0.54,2.8,1.58c0.38,0.62,0.36,1.79-0.11,2.51c-0.98,1.52-3.21,1.78-4.54,0.82
		c-1.03-0.74-1.48-1.7-1.09-2.93c0.32-1,1.1-1.62,2.14-1.86C30.59,34.33,30.86,34.32,31.12,34.28z"/>
	<path d="M18.1,31.22c-1.27-0.02-2.24-0.52-2.82-1.59c-0.43-0.8-0.39-1.64,0.13-2.44c0.66-1.04,1.65-1.45,2.81-1.41
		c1.37,0.05,2.39,0.76,2.82,2.02c0.29,0.85,0.05,1.66-0.54,2.34C19.86,30.89,19.02,31.2,18.1,31.22z"/>
</g>
</svg>
